<svg xmlns="http://www.w3.org/2000/svg" viewBox="0 0 1118 110" preserveAspectRatio='none'>
	<path class="pagelayer-shape-fill" d="M691,20.55l1,-20.64l-705,0l1,9.04c6.57,-1.13 15.34,-3.46 22.31,-3.46c45.18,0 82.54,10.59 96.13,45.66c9.78,-9.05 23.72,-14.72 39.16,-14.72c20.51,0 38.36,10 47.33,24.63c14.34,-9.27 32.19,-14.76 51.55,-14.76c36.2,0 67.19,19.27 79.98,46.54c10.53,-8.44 24.67,-13.64 40.21,-13.64c19.56,0 36.85,8.18 47.59,20.78c6.42,-3.51 14.04,-5.59 22.26,-5.59c3.26,0 6.42,0.35 9.48,0.95c2.46,-24.59 26.38,-43.86 55.46,-43.86c24.67,0 45.58,13.81 52.9,32.99c13.84,-12.38 33.29,-20.09 54.86,-20.09c6.37,0 12.54,0.69 18.45,1.95c8.98,-24.76 34.45,-43.21 65.29,-45.81z" />
	<path class="pagelayer-shape-fill" d="M690.05,20.64c30.84,2.6 56.31,21.04 65.29,45.81c5.92,-1.26 12.08,-1.95 18.45,-1.95c21.56,0 41.02,7.71 54.86,20.09c7.32,-19.18 28.23,-32.99 52.9,-32.99c29.08,0 53,19.27 55.46,43.86c3.06,-0.61 6.22,-0.95 9.48,-0.95c8.22,0 15.85,2.08 22.26,5.59c10.73,-12.6 28.03,-20.78 47.59,-20.78c15.54,0 29.68,5.2 40.21,13.64c12.79,-27.28 43.77,-46.54 79.98,-46.54c19.36,0 37.21,5.5 51.55,14.76c8.98,-14.63 26.83,-24.63 47.33,-24.63c15.44,0 29.38,5.67 39.16,14.72c13.59,-35.07 50.95,-45.66 96.13,-45.66c6.97,0 15.74,2.33 22.31,3.46l1,-9.04l-705,0l1,20.64z" />
</svg>
