<svg xmlns="http://www.w3.org/2000/svg" viewBox="0 0 1118 110"  preserveAspectRatio='none'>
	<path class="pagelayer-shape-fill" d="M689.96,89.39c-30.84,-2.6 -56.31,-21.05 -65.29,-45.81c-5.91,1.26 -12.08,1.95 -18.45,1.95c-21.57,0 -41.02,-7.71 -54.86,-20.09c-7.32,19.18 -28.23,32.99 -52.9,32.99c-29.08,0 -53,-19.27 -55.46,-43.86c-3.06,0.6 -6.22,0.95 -9.48,0.95c-8.22,0 -15.84,-2.08 -22.26,-5.59c-10.74,12.6 -28.03,20.78 -47.59,20.78c-15.54,0 -29.68,-5.2 -40.21,-13.64c-12.79,27.27 -43.78,46.54 -79.98,46.54c-19.36,0 -37.21,-5.49 -51.55,-14.76c-8.97,14.63 -26.82,24.63 -47.33,24.63c-15.44,0 -29.38,-5.67 -39.16,-14.72c-13.59,35.07 -50.95,45.66 -96.13,45.66c-6.97,0 -15.74,-2.33 -22.31,-3.46l-1,9.04l705,0l-1,-20.64z" />
	<path class="pagelayer-shape-fill" d="M687,89.36l-1,20.64l705,0l-1,-9.04c-6.57,1.13 -15.34,3.46 -22.31,3.46c-45.18,0 -82.54,-10.59 -96.13,-45.66c-9.78,9.05 -23.72,14.72 -39.16,14.72c-20.5,0 -38.35,-10 -47.33,-24.63c-14.34,9.26 -32.19,14.76 -51.55,14.76c-36.21,0 -67.19,-19.26 -79.98,-46.54c-10.53,8.44 -24.67,13.64 -40.21,13.64c-19.56,0 -36.86,-8.18 -47.59,-20.78c-6.41,3.51 -14.04,5.59 -22.26,5.59c-3.26,0 -6.42,-0.34 -9.48,-0.95c-2.46,24.59 -26.38,43.86 -55.46,43.86c-24.67,0 -45.58,-13.81 -52.9,-32.99c-13.84,12.38 -33.3,20.09 -54.86,20.09c-6.37,0 -12.53,-0.69 -18.45,-1.95c-8.98,24.77 -34.45,43.21 -65.29,45.81z" />
</svg>