<svg xmlns="http://www.w3.org/2000/svg" viewBox="0 0 1000 100" preserveAspectRatio="none">
	<path class="pagelayer-shape-fill"  style="opacity:0.33" d="M670.3,26.21c50.4,4 99.94,6.49 123.24,23.79c13,9.8 76.7,33.75 109.5,30.45c32.8,-3.2 96.96,-54 96.96,-54v-36.44l-1070.7,18.74c0,0 91.5,38.45 115.5,50c27.71,13.33 54.97,41.63 154.74,-24.81c60,-39.95 119.86,113.11 323.76,24.81c19.4,-8.3 96.6,-36.55 147,-32.55z" />
	<path class="pagelayer-shape-fill"  style="opacity:0.66" d="M918.41,24.95c63.9,0 81.59,37.5 81.59,37.5v-62.45l-1000,0l-7.46,57.95c0,0 7.46,22.5 94.5,-7.95c63.25,-22.13 106.3,42.15 210,-7.05c103.7,-49.2 241.4,-1.65 270,7.05c51.9,15.9 61,27.45 106.5,27.45c41.7,0 144.17,-52.4 241.87,-52.5z" />
	<path class="pagelayer-shape-fill" d="M921.5,50c73.7,-7.2 97.5,-50 97.5,-50l-1053,0c0,0 49.7,73.65 111,62.45c42.4,-7.6 30.2,-11.8 87,-27c57.2,-15.2 55.5,-32.05 184.5,14.55c129.1,46 227.41,-70.55 427.41,-13.05c63.5,18.1 71.89,20.25 145.59,13.05z" />
</svg>