<svg xmlns='http://www.w3.org/2000/svg' viewBox='0 0 1500 100' preserveAspectRatio='none'>
	<path class='pagelayer-shape-fill' d="M0 100L10,2L20,100L30,2L40,100L50,2L60,100L70,2L80,100L90,2L100,100L110,2L120,100L130,2L140,100L150,2L160,100L170,2L180,100L190,2L200,100L210,2L220,100L230,2L240,100L250,2L260,100L270,2L280,100L290,2L300,100L310,2L320,100L330,2L340,100L350,2L360,100L370,2L380,100L390,2L400,100L410,2L420,100L430,2L440,100L450,2L460,100L470,2L480,100L490,2L500,100L510,2L520,100L530,2L540,100L550,2L560,100L570,2L580,100L590,2L600,100L610,2L620,100L630,2L640,100L650,2L660,100L670,2L680,100L690,2L700,100L710,2L720,100L730,2L740,100L750,2L760,100L770,2L780,100L790,2L800,100L810,2L820,100L830,2L840,100L850,2L860,100L870,2L880,100L890,2L900,100L910,2L920,100L930,2L940,100L950,2L960,100L970,2L980,100L990,2L1000,100L1010,2L1020,100L1030,2L1040,100L1050,2L1060,100L1070,2L1080,100L1090,2L1100,100L1110,2L1120,100L1130,2L1140,100L1150,2L1160,100L1170,2L1180,100L1190,2L1200,100L1210,2L1220,100L1230,2L1240,100L1250,2L1260,100L1270,2L1280,100L1290,2L1300,100L1310,2L1320,100L1330,2L1340,100L1350,2L1360,100L1370,2L1380,100L1390,2L1400,100L1410,2L1420,100L1430,2L1440,100L1450,2L1460,100L1470,2L1480,100L1490,2L1500,100V100H0Z">
</path>
</svg>