<svg xmlns='http://www.w3.org/2000/svg' viewBox='0 0 1500 100' preserveAspectRatio='none'>
	<path class='pagelayer-shape-fill' d="M0 0L10,100L20,3L30,100L40,3L50,100L60,3L70,100L80,3L90,100L100,3L110,100L120,3L130,100L140,3L150,100L160,3L170,100L180,3L190,100L200,3L210,100L220,3L230,100L240,3L250,100L260,3L270,100L280,3L290,100L300,3L310,100L320,3L330,100L340,3L350,100L360,3L370,100L380,3L390,100L400,3L410,100L420,3L430,100L440,3L450,100L460,3L470,100L480,3L490,100L500,3L510,100L520,3L530,100L540,3L550,100L560,3L570,100L580,3L590,100L600,3L610,100L620,3L630,100L640,3L650,100L660,3L670,100L680,3L690,100L700,3L710,100L720,3L730,100L740,3L750,100L760,3L770,100L780,3L790,100L800,3L810,100L820,3L830,100L840,3L850,100L860,3L870,100L880,3L890,100L900,3L910,100L920,3L930,100L940,3L950,100L960,3L970,100L980,3L990,100L1000,3L1010,100L1020,3L1030,100L1040,3L1050,100L1060,3L1070,100L1080,3L1090,100L1100,3L1110,100L1120,3L1130,100L1140,3L1150,100L1160,3L1170,100L1180,3L1190,100L1200,3L1210,100L1220,3L1230,100L1240,3L1250,100L1260,3L1270,100L1280,3L1290,100L1300,3L1310,100L1320,3L1330,100L1340,3L1350,100L1360,3L1370,100L1380,3L1390,100L1400,3L1410,100L1420,3L1430,100L1440,3L1450,100L1460,3L1470,100L1480,3L1490,100L1500,3V0H0Z">
</path>
</svg>